<svg width="183" height="51" fill="none" xmlns="http://www.w3.org/2000/svg"><path d="M14.193 24.154c0-.915-.324-1.615-.97-2.1-.647-.495-1.81-1.012-3.492-1.55-1.681-.55-3.013-1.088-3.993-1.616-2.673-1.443-4.01-3.387-4.01-5.831 0-1.27.356-2.402 1.068-3.392.722-1.002 1.75-1.782 3.087-2.342 1.347-.56 2.856-.84 4.527-.84 1.681 0 3.18.307 4.494.92 1.315.603 2.333 1.46 3.055 2.569.733 1.109 1.1 2.369 1.1 3.78h-4.85c0-1.077-.34-1.912-1.019-2.504-.679-.603-1.632-.905-2.861-.905-1.186 0-2.107.253-2.764.76-.658.495-.987 1.152-.987 1.97 0 .765.383 1.405 1.148 1.922.776.517 1.913 1.002 3.411 1.454 2.76.83 4.77 1.857 6.03 3.085 1.261 1.228 1.892 2.757 1.892 4.588 0 2.035-.771 3.634-2.312 4.797-1.541 1.152-3.616 1.728-6.224 1.728-1.81 0-3.46-.328-4.947-.985-1.487-.668-2.624-1.578-3.41-2.73C1.388 25.78 1 24.445 1 22.926h4.866c0 2.596 1.552 3.893 4.656 3.893 1.153 0 2.053-.231 2.7-.694.646-.474.97-1.131.97-1.971zm45.992 2.277h10.298v3.893H55.335V6.806h4.85V26.43zm26.706-.953h-8.503l-1.616 4.846h-5.157l8.762-23.518h4.494l8.81 23.518h-5.157l-1.633-4.846zm-7.193-3.925h5.884l-2.958-8.803-2.926 8.803zm24.895.162h-3.863v8.61h-4.85V6.804h8.746c2.78 0 4.925.62 6.434 1.858 1.509 1.239 2.263 2.989 2.263 5.25 0 1.604-.35 2.945-1.051 4.022-.689 1.066-1.74 1.917-3.152 2.552l5.092 9.611v.226h-5.205l-4.414-8.61zm-3.863-3.925h3.912c1.218 0 2.161-.307 2.829-.921.668-.625 1.002-1.48 1.002-2.568 0-1.11-.318-1.982-.954-2.617-.625-.635-1.589-.953-2.893-.953h-3.896v7.059zm38.701 2.342h-9.311v6.3h10.928v3.892H125.27V6.806h15.746v3.925H130.12v5.605h9.311v3.796zm12.885-5.218l4.413-8.108h5.577l-6.853 11.662 7.031 11.856h-5.642l-4.526-8.238-4.527 8.238h-5.642l7.033-11.856-6.855-11.662h5.577l4.414 8.108zm26.787 5.218h-9.312v6.3h10.929v3.892h-15.779V6.806h15.745v3.925h-10.895v5.605h9.312v3.796zM37.245 10.186c-5.507 0-9.987 4.476-9.987 9.979 0 5.502 4.48 9.979 9.987 9.979s9.988-4.477 9.988-9.98c0-5.502-4.48-9.978-9.988-9.978zm0 18.2c-4.537 0-8.228-3.688-8.228-8.221 0-4.534 3.69-8.222 8.228-8.222s8.229 3.688 8.229 8.222c0 4.533-3.691 8.222-8.229 8.222zm.001-24.76a.88.88 0 00-.88.878v3.46a.88.88 0 001.76 0v-3.46a.88.88 0 00-.88-.878zM48.95 8.47a.88.88 0 00-1.243 0l-2.449 2.446a.878.878 0 101.244 1.242l2.448-2.446a.878.878 0 000-1.242zM29.233 28.171a.88.88 0 00-1.244 0l-2.448 2.446a.878.878 0 101.243 1.243l2.448-2.446a.878.878 0 000-1.243zm23.687-8.885h-3.463a.879.879 0 100 1.757h3.462a.879.879 0 100-1.757zm-27.886 0h-3.462a.879.879 0 100 1.757h3.462a.879.879 0 100-1.757zm4.199-8.37L26.784 8.47a.88.88 0 00-1.243 1.242l2.448 2.447a.877.877 0 001.244 0 .878.878 0 000-1.243zM48.95 30.617l-2.448-2.446a.88.88 0 00-1.244 1.243l2.449 2.446a.877.877 0 001.243 0 .878.878 0 000-1.242zM60.289 48.75l.244-1.78.111-.81 4.865.668a.879.879 0 10.24-1.741l-4.866-.667.602-4.387 4.865.667a.88.88 0 10.24-1.741l-4.866-.667.111-.81.245-1.779a.878.878 0 10-1.743-.238l-.124.908-4.303-.59a5.68 5.68 0 00-6.203 3.984l-7.745-1.062a4.643 4.643 0 01-3.967-5.224l.28-2.048a.879.879 0 00-1.741-.238l-.281 2.047c-.48 3.494 1.974 6.725 5.47 7.204l7.745 1.062a5.677 5.677 0 004.9 5.505l4.303.59-.125.908a.879.879 0 001.743.239zm-5.681-3.478a3.915 3.915 0 01-3.346-4.405 3.917 3.917 0 014.409-3.342l4.303.59-1.064 7.747-4.302-.59zm49.735-42.137a.88.88 0 100-1.758.88.88 0 000 1.758zm-4.139 0a.88.88 0 10.001-1.758.88.88 0 00-.001 1.758z" fill="#fff"/></svg>